<svg display="none" xmlns="http://www.w3.org/2000/svg">
    
    <symbol id="clock" viewBox="0 0 17 17">
        <g>
            <path d="M8.305 2.007a6.667 6.667 0 1 0 0 13.334 6.667 6.667 0 0 0 0-13.334Zm2.667 7.334H8.305a.667.667 0 0 1-.667-.667V6.007a.667.667 0 0 1 1.334 0v2h2a.667.667 0 0 1 0 1.334Z" fill="#8BACD9"/>
        </g>
    </symbol>

    <symbol id="eth-icon" viewBox="0 0 11 18">
        <g>
            <path d="M11 10.216 5.5 18 0 10.216l5.5 3.263 5.5-3.262ZM5.5 0l5.496 9.169L5.5 12.43 0 9.17 5.5 0Z" fill="#00FFF8"/>
        </g>
    </symbol>
</svg>
